<svg xmlns="http://www.w3.org/2000/svg" xmlns:xlink="http://www.w3.org/1999/xlink" viewBox="0,0,256,256" width="30px" height="30px" fill-rule="nonzero"><g fill="#869ab8" fill-rule="nonzero" stroke="none" stroke-width="1" stroke-linecap="butt" stroke-linejoin="miter" stroke-miterlimit="10" stroke-dasharray="" stroke-dashoffset="0" font-family="none" font-weight="none" font-size="none" text-anchor="none" style="mix-blend-mode: normal"><g transform="scale(8.53333,8.53333)"><path d="M24,4h-18c-1.105,0 -2,0.895 -2,2v18c0,1.105 0.895,2 2,2h18c1.105,0 2,-0.895 2,-2v-18c0,-1.105 -0.896,-2 -2,-2zM22.689,13.474c-0.13,0.012 -0.261,0.02 -0.393,0.02c-1.495,0 -2.809,-0.768 -3.574,-1.931c0,3.049 0,6.519 0,6.577c0,2.685 -2.177,4.861 -4.861,4.861c-2.684,-0.001 -4.861,-2.178 -4.861,-4.862c0,-2.685 2.177,-4.861 4.861,-4.861c0.102,0 0.201,0.009 0.3,0.015v2.396c-0.1,-0.012 -0.197,-0.03 -0.3,-0.03c-1.37,0 -2.481,1.111 -2.481,2.481c0,1.37 1.11,2.481 2.481,2.481c1.371,0 2.581,-1.08 2.581,-2.45c0,-0.055 0.024,-11.17 0.024,-11.17h2.289c0.215,2.047 1.868,3.663 3.934,3.811z"></path></g></g></svg>